:FULLY-SPECIFIED
:FORCE-ALL-JOINTS-BE-3DOF
:DEGREES
113
root 0.711853 17.4872 24.1422 -0.268504 -3.2874 0.764676
lfemur -2.35307 8.20985 -18.638
ltibia 81.773 -0 0
lfoot 16.2215 -0.460315 0.00481667
ltoes -9.597 0 0
rfemur -18.2689 0.589662 24.4649
rtibia 54.469 -0 0
rfoot -1.41866 -6.4565 -0.00816102
rtoes 13.4322 -0 0
lowerback 17.6603 -1.451 -0.0593899
upperback 2.01349 -1.88753 0.328823
thorax -7.70677 -0.910304 0.835626
lowerneck -6.77702 1.91714 -0.510581
upperneck -8.12721 2.47605 -1.96027
head -1.34335 1.26807 -0.492596
lclavicle -3.22031e-14 1.82882e-14 0
lhumerus -40.2222 -19.0694 91.9167
lradius 105.961 -0 0
lwrist 27.9935 0 0
lhand -37.2378 8.44893 -0.000692378
lfingers 7.12502 -0 0
lthumb -10.304 38.1757 -0.000544724
rclavicle -3.22031e-14 1.82882e-14 0
rhumerus -41.1542 10.5331 -85.0912
rradius 88.3703 -0 0
rwrist -2.19235 0 0
rhand -44.5288 38.4913 9.15021e-05
rfingers 7.12502 -0 0
rthumb -17.3302 9.24396 8.60674e-05
114
root 0.716569 17.4885 24.6832 -0.258472 -3.64539 0.638527
lfemur -1.94529 8.65331 -18.1765
ltibia 83.5601 -0 0
lfoot 17.437 -0.474697 0.00338952
ltoes -9.34471 0 0
rfemur -18.4152 1.10359 24.8293
rtibia 52.4016 -0 0
rfoot -2.46992 -6.45202 -0.00747838
rtoes 12.8553 -0 0
lowerback 17.651 -1.47196 0.166684
upperback 1.97574 -1.8624 0.456446
thorax -7.7465 -0.90267 0.839215
lowerneck -6.75109 2.03698 -0.44126
upperneck -8.14527 2.61833 -2.22668
head -1.34976 1.33984 -0.587606
lclavicle -3.22031e-14 1.82882e-14 0
lhumerus -40.8811 -19.1419 92.217
lradius 105.915 -0 0
lwrist 27.9729 0 0
lhand -37.2931 8.51061 -0.000884764
lfingers 7.12502 -0 0
lthumb -10.3574 38.2348 -0.000735075
rclavicle -3.22031e-14 1.82882e-14 0
rhumerus -40.8357 10.7078 -85.0969
rradius 88.7827 -0 0
rwrist -2.3253 0 0
rhand -44.5254 38.5035 8.34597e-05
rfingers 7.12502 -0 0
rthumb -17.3269 9.25583 7.85033e-05
115
root 0.721285 17.4899 25.2242 -0.248141 -3.99046 0.516892
lfemur -1.5476 9.07776 -17.7282
ltibia 85.2828 -0 0
lfoot 18.6092 -0.488488 0.00230004
ltoes -9.10143 0 0
rfemur -18.5533 1.6 25.1793
rtibia 50.4082 -0 0
rfoot -3.48338 -6.4477 -0.00674226
rtoes 12.2994 -0 0
lowerback 17.642 -1.49217 0.384615
upperback 1.93938 -1.83813 0.579461
thorax -7.78482 -0.895323 0.842688
lowerneck -6.72607 2.1525 -0.374384
upperneck -8.16313 2.75543 -2.48363
head -1.35599 1.40902 -0.679219
lclavicle -3.22031e-14 1.82882e-14 0
lhumerus -41.5169 -19.2088 92.5073
lradius 105.871 -0 0
lwrist 27.953 0 0
lhand -37.3464 8.56996 -0.0010115
lfingers 7.12502 -0 0
lthumb -10.4089 38.2916 -0.000864284
rclavicle -3.22031e-14 1.82882e-14 0
rhumerus -40.5286 10.8763 -85.1014
rradius 89.18 -0 0
rwrist -2.4535 0 0
rhand -44.5221 38.5152 7.50145e-05
rfingers 7.12502 -0 0
rthumb -17.3237 9.26729 7.05605e-05
116
root 0.726001 17.4912 25.7652 -0.237759 -4.32095 0.400454
lfemur -1.16147 9.48154 -17.2956
ltibia 86.9328 -0 0
lfoot 19.7331 -0.501503 0.00151305
ltoes -8.86821 0 0
rfemur -18.6831 2.07657 25.5135
rtibia 48.4976 -0 0
rfoot -4.4543 -6.44358 -0.00596514
rtoes 11.7676 -0 0
lowerback 17.6332 -1.51154 0.593358
upperback 1.90456 -1.81488 0.697293
thorax -7.82154 -0.888316 0.84605
lowerneck -6.70222 2.26317 -0.310284
upperneck -8.1804 2.88674 -2.72994
head -1.36189 1.47531 -0.767013
lclavicle -3.22031e-14 1.82882e-14 0
lhumerus -42.1266 -19.2705 92.7863
lradius 105.829 -0 0
lwrist 27.9336 0 0
lhand -37.3974 8.62659 -0.00107596
lfingers 7.12502 -0 0
lthumb -10.4581 38.3458 -0.00093536
rclavicle -3.22031e-14 1.82882e-14 0
rhumerus -40.2346 11.0378 -85.1047
rradius 89.5604 -0 0
rwrist -2.57638 0 0
rhand -44.519 38.5265 6.62735e-05
rfingers 7.12502 -0 0
rthumb -17.3207 9.2783 6.23394e-05
117
root 0.730717 17.4926 26.3062 -0.227585 -4.63521 0.2899
lfemur -0.788412 9.86306 -16.8814
ltibia 88.502 -0 0
lfoot 20.8037 -0.513555 0.000985713
ltoes -8.64612 0 0
rfemur -18.8045 2.53095 25.8303
rtibia 46.6788 -0 0
rfoot -5.37794 -6.43968 -0.00516046
rtoes 11.2628 -0 0
lowerback 17.6247 -1.53001 0.791865
upperback 1.87142 -1.79281 0.809365
thorax -7.8565 -0.881703 0.849307
lowerneck -6.67983 2.36848 -0.249291
upperneck -8.19669 3.01167 -2.96446
head -1.36734 1.5384 -0.850565
lclavicle -3.22031e-14 1.82882e-14 0
lhumerus -42.7072 -19.3273 93.0524
lradius 105.789 -0 0
lwrist 27.9147 0 0
lhand -37.4458 8.68007 -0.00108253
lfingers 7.12502 -0 0
lthumb -10.5047 38.397 -0.00095224
rclavicle -3.22031e-14 1.82882e-14 0
rhumerus -39.9551 11.1915 -85.1068
rradius 89.9216 -0 0
rwrist -2.69337 0 0
rhand -44.516 38.5373 5.73492e-05
rfingers 7.12502 -0 0
rthumb -17.3178 9.28882 5.39459e-05
